<svg width="176" height="24" viewBox="0 0 176 24" fill="none" xmlns="http://www.w3.org/2000/svg">
<path d="M52.3842 20.3199C51.0687 20.3199 49.9042 20.0711 48.8909 19.5733C47.8953 19.0577 47.1131 18.3022 46.5442 17.3066C45.9753 16.2933 45.6909 15.0399 45.6909 13.5466V8.98661C45.6909 6.74661 46.3398 5.05772 47.6376 3.91995C48.9353 2.78217 50.722 2.21328 52.9976 2.21328C54.6509 2.21328 56.0287 2.47106 57.1309 2.98661C58.2509 3.50217 59.0598 4.20439 59.5576 5.09328C60.0731 5.98217 60.2598 6.9955 60.1176 8.13328C60.082 8.34661 59.9576 8.45328 59.7442 8.45328H56.6242C56.4109 8.45328 56.3131 8.32884 56.3309 8.07995C56.3487 7.54661 56.242 7.09328 56.0109 6.71995C55.7976 6.32884 55.442 6.02661 54.9442 5.81328C54.4642 5.59995 53.842 5.49328 53.0776 5.49328C51.9042 5.49328 51.0153 5.78661 50.4109 6.37328C49.8065 6.95995 49.5042 7.88439 49.5042 9.14662V13.3866C49.5042 14.6488 49.8065 15.5733 50.4109 16.1599C51.0153 16.7466 51.9131 17.0399 53.1042 17.0399C54.2242 17.0399 55.0687 16.7911 55.6376 16.2933C56.2242 15.7955 56.5176 15.0844 56.5176 14.1599V13.4133H53.2642C53.0331 13.4133 52.9176 13.2977 52.9176 13.0666V11.0666C52.9176 10.8355 53.0331 10.7199 53.2642 10.7199H59.8242C59.9309 10.7199 60.0109 10.7555 60.0642 10.8266C60.1176 10.8799 60.1442 10.9599 60.1442 11.0666V15.7599C60.1442 16.3822 60.1531 17.0399 60.1709 17.7333C60.2065 18.4266 60.2776 19.0577 60.3842 19.6266C60.4198 19.7333 60.402 19.8222 60.3309 19.8933C60.2598 19.9644 60.1709 19.9999 60.0642 19.9999H57.5576C57.4687 19.9999 57.3976 19.9733 57.3442 19.9199C57.2909 19.8666 57.2465 19.7955 57.2109 19.7066C57.1753 19.4933 57.1398 19.2355 57.1042 18.9333C57.0865 18.6133 57.0687 18.3199 57.0509 18.0533H56.9976C56.7131 18.4977 56.3576 18.8977 55.9309 19.2533C55.522 19.5911 55.0242 19.8488 54.4376 20.0266C53.8509 20.2222 53.1665 20.3199 52.3842 20.3199Z" fill="url(#paint0_linear_44_3718)"/>
<path d="M69.7992 20.3199C67.8615 20.3199 66.3503 19.8577 65.2659 18.9333C64.1992 18.0088 63.6659 16.6222 63.6659 14.7733V12.0266C63.6659 10.1777 64.1992 8.79106 65.2659 7.86661C66.3503 6.94217 67.8615 6.47995 69.7992 6.47995C71.7548 6.47995 73.2659 6.94217 74.3326 7.86661C75.3992 8.79106 75.9326 10.1777 75.9326 12.0266V14.7733C75.9326 16.6222 75.3992 18.0088 74.3326 18.9333C73.2659 19.8577 71.7548 20.3199 69.7992 20.3199ZM69.7992 17.1733C70.6526 17.1733 71.2659 16.9599 71.6392 16.5333C72.0303 16.0888 72.2259 15.3866 72.2259 14.4266V12.3733C72.2259 11.4133 72.0303 10.7199 71.6392 10.2933C71.2659 9.84884 70.6526 9.62661 69.7992 9.62661C68.9637 9.62661 68.3503 9.84884 67.9592 10.2933C67.5681 10.7199 67.3726 11.4133 67.3726 12.3733V14.4266C67.3726 15.3866 67.5681 16.0888 67.9592 16.5333C68.3503 16.9599 68.9637 17.1733 69.7992 17.1733Z" fill="url(#paint1_linear_44_3718)"/>
<path d="M82.7013 20.3199C81.4569 20.3199 80.5058 19.9466 79.848 19.1999C79.208 18.4533 78.888 17.2977 78.888 15.7333V11.8933C78.888 10.0266 79.3058 8.65773 80.1413 7.78661C80.9769 6.9155 82.1324 6.47995 83.608 6.47995C84.2124 6.47995 84.8791 6.55995 85.608 6.71995C86.3369 6.87995 86.9324 7.10217 87.3947 7.38661L87.5013 10.2666C87.0391 10.0177 86.5591 9.83106 86.0613 9.70661C85.5635 9.58217 85.1191 9.51995 84.728 9.51995C83.9991 9.51995 83.4569 9.75106 83.1013 10.2133C82.7635 10.6755 82.5947 11.3422 82.5947 12.2133V15.0933C82.5947 15.7688 82.7191 16.2755 82.968 16.6133C83.2347 16.9511 83.6524 17.1199 84.2213 17.1199C84.5947 17.1199 84.9591 17.0488 85.3147 16.9066C85.6702 16.7466 86.0346 16.5244 86.408 16.2399C86.7813 15.9555 87.1813 15.5999 87.608 15.1733L87.7947 17.6266C87.3324 18.1244 86.8435 18.5777 86.328 18.9866C85.8302 19.3955 85.2791 19.7244 84.6747 19.9733C84.088 20.2044 83.4302 20.3199 82.7013 20.3199ZM87.9813 19.9999C87.8746 19.9999 87.7947 19.9822 87.7413 19.9466C87.688 19.8933 87.6435 19.8044 87.608 19.6799C87.5547 19.4133 87.5013 19.0933 87.448 18.7199C87.3946 18.3288 87.368 17.9733 87.368 17.6533L87.048 16.1333V2.13328C87.048 1.90217 87.1635 1.78661 87.3947 1.78661H90.4347C90.648 1.78661 90.7547 1.90217 90.7547 2.13328V16.7199C90.7547 17.0399 90.7635 17.3777 90.7813 17.7333C90.7991 18.0711 90.8169 18.3999 90.8347 18.7199C90.8702 19.0399 90.8969 19.3333 90.9146 19.5999C90.968 19.8666 90.8613 19.9999 90.5947 19.9999H87.9813Z" fill="url(#paint2_linear_44_3718)"/>
<path d="M94.644 19.9999C94.4129 19.9999 94.2974 19.8844 94.2974 19.6533V10.1866C94.2974 9.65328 94.2796 9.13773 94.244 8.63995C94.2262 8.12439 94.1907 7.6355 94.1374 7.17328C94.1018 6.92439 94.2174 6.79995 94.484 6.79995H97.124C97.2307 6.79995 97.3107 6.81773 97.364 6.85328C97.4174 6.88884 97.4529 6.95995 97.4707 7.06661C97.524 7.29773 97.5685 7.56439 97.604 7.86661C97.6574 8.15106 97.6929 8.4355 97.7107 8.71995C98.3329 8.09773 98.9907 7.57328 99.684 7.14661C100.377 6.70217 101.186 6.47995 102.111 6.47995C103.053 6.47995 103.782 6.66661 104.297 7.03995C104.813 7.41328 105.186 7.97328 105.417 8.71995C106.057 8.07995 106.733 7.54661 107.444 7.11995C108.173 6.69328 108.991 6.47995 109.897 6.47995C111.142 6.47995 112.066 6.8355 112.671 7.54661C113.293 8.25773 113.604 9.35995 113.604 10.8533V19.6533C113.604 19.8844 113.488 19.9999 113.257 19.9999H110.244C110.013 19.9999 109.897 19.8844 109.897 19.6533V11.5999C109.897 10.9599 109.782 10.4799 109.551 10.1599C109.32 9.83995 108.946 9.67995 108.431 9.67995C107.986 9.67995 107.551 9.80439 107.124 10.0533C106.715 10.2844 106.28 10.6311 105.817 11.0933V19.6533C105.817 19.8844 105.702 19.9999 105.471 19.9999H102.457C102.226 19.9999 102.111 19.8844 102.111 19.6533V11.5999C102.111 10.9599 101.995 10.4799 101.764 10.1599C101.533 9.83995 101.151 9.67995 100.617 9.67995C100.173 9.67995 99.7462 9.80439 99.3374 10.0533C98.9285 10.2844 98.484 10.6311 98.004 11.0933V19.6533C98.004 19.8844 97.8885 19.9999 97.6574 19.9999H94.644Z" fill="url(#paint3_linear_44_3718)"/>
<path d="M124.962 19.9999C124.856 19.9999 124.776 19.9733 124.722 19.9199C124.669 19.8488 124.625 19.7599 124.589 19.6533C124.553 19.4577 124.509 19.1644 124.456 18.7733C124.402 18.3644 124.358 17.9644 124.322 17.5733L124.056 16.4533V11.0933C124.056 10.4177 123.922 9.94661 123.656 9.67995C123.407 9.3955 122.953 9.25328 122.296 9.25328C121.087 9.25328 120.509 9.70661 120.562 10.6133C120.58 10.8444 120.465 10.9599 120.216 10.9599H117.416C117.202 10.9599 117.078 10.8177 117.042 10.5333C116.936 9.2355 117.345 8.23995 118.269 7.54661C119.211 6.8355 120.598 6.47995 122.429 6.47995C124.296 6.47995 125.647 6.86217 126.482 7.62661C127.336 8.37328 127.762 9.56439 127.762 11.1999V16.6133C127.762 17.1822 127.771 17.7155 127.789 18.2133C127.825 18.6933 127.869 19.1644 127.922 19.6266C127.958 19.8755 127.842 19.9999 127.576 19.9999H124.962ZM119.842 20.3199C118.776 20.3199 117.949 19.9999 117.362 19.3599C116.776 18.7022 116.482 17.7777 116.482 16.5866C116.482 15.6622 116.651 14.9155 116.989 14.3466C117.345 13.7599 117.922 13.3066 118.722 12.9866C119.54 12.6488 120.625 12.4266 121.976 12.3199L124.456 12.0799L124.429 14.1066L122.456 14.2933C121.549 14.3822 120.918 14.5688 120.562 14.8533C120.225 15.1199 120.056 15.5555 120.056 16.1599C120.056 16.6399 120.153 16.9866 120.349 17.1999C120.545 17.4133 120.838 17.5199 121.229 17.5199C121.727 17.5199 122.225 17.3688 122.722 17.0666C123.22 16.7644 123.825 16.2311 124.536 15.4666L124.696 17.6799C124.198 18.1955 123.7 18.6577 123.202 19.0666C122.722 19.4577 122.207 19.7688 121.656 19.9999C121.122 20.2133 120.518 20.3199 119.842 20.3199Z" fill="url(#paint4_linear_44_3718)"/>
<path d="M139.862 19.9999C139.631 19.9999 139.515 19.8844 139.515 19.6533V11.5999C139.515 10.9422 139.382 10.4622 139.115 10.1599C138.867 9.83995 138.458 9.67995 137.889 9.67995C137.32 9.67995 136.76 9.84884 136.209 10.1866C135.675 10.5244 135.107 11.0044 134.502 11.6266L134.289 9.14662C134.751 8.64884 135.231 8.20439 135.729 7.81328C136.244 7.40439 136.795 7.08439 137.382 6.85328C137.987 6.60439 138.653 6.47995 139.382 6.47995C140.644 6.47995 141.595 6.8355 142.235 7.54661C142.893 8.25773 143.222 9.35995 143.222 10.8533V19.6533C143.222 19.8844 143.107 19.9999 142.875 19.9999H139.862ZM131.622 19.9999C131.391 19.9999 131.275 19.8844 131.275 19.6533V10.1866C131.275 9.65328 131.258 9.11995 131.222 8.58661C131.187 8.05328 131.151 7.59106 131.115 7.19995C131.08 6.93328 131.195 6.79995 131.462 6.79995H134.102C134.209 6.79995 134.289 6.82661 134.342 6.87995C134.413 6.9155 134.458 6.98661 134.475 7.09328C134.511 7.25328 134.547 7.46661 134.582 7.73328C134.618 7.98217 134.653 8.24884 134.689 8.53328C134.724 8.81773 134.742 9.0755 134.742 9.30661L134.982 10.6399V19.6533C134.982 19.8844 134.867 19.9999 134.635 19.9999H131.622Z" fill="url(#paint5_linear_44_3718)"/>
<path d="M149.024 20.3199C148.26 20.3199 147.664 20.1244 147.237 19.7333C146.828 19.3422 146.624 18.8266 146.624 18.1866V17.5999C146.624 16.9244 146.828 16.3999 147.237 16.0266C147.664 15.6533 148.26 15.4666 149.024 15.4666C149.824 15.4666 150.42 15.6533 150.811 16.0266C151.22 16.3999 151.424 16.9244 151.424 17.5999V18.1866C151.424 18.8266 151.22 19.3422 150.811 19.7333C150.42 20.1244 149.824 20.3199 149.024 20.3199Z" fill="url(#paint6_linear_44_3718)"/>
<path d="M153.979 19.9999C153.73 19.9999 153.641 19.8755 153.712 19.6266L159.365 2.79995C159.437 2.62217 159.57 2.53328 159.765 2.53328H163.845C164.041 2.53328 164.165 2.62217 164.219 2.79995L169.925 19.6266C169.961 19.7333 169.952 19.8222 169.899 19.8933C169.863 19.9644 169.783 19.9999 169.659 19.9999H166.219C166.023 19.9999 165.899 19.9111 165.845 19.7333L162.779 9.41328C162.601 8.80884 162.432 8.20439 162.272 7.59995C162.112 6.97773 161.952 6.36439 161.792 5.75995H161.739C161.579 6.36439 161.419 6.97773 161.259 7.59995C161.099 8.20439 160.93 8.80884 160.752 9.41328L157.739 19.7066C157.685 19.9022 157.561 19.9999 157.365 19.9999H153.979ZM158.085 16.6133L158.725 13.5733H164.725L165.419 16.6133H158.085Z" fill="url(#paint7_linear_44_3718)"/>
<path d="M172.499 19.9999C172.268 19.9999 172.153 19.8844 172.153 19.6533V2.87995C172.153 2.64884 172.268 2.53328 172.499 2.53328H175.619C175.85 2.53328 175.966 2.64884 175.966 2.87995V19.6533C175.966 19.8844 175.85 19.9999 175.619 19.9999H172.499Z" fill="url(#paint8_linear_44_3718)"/>
<path d="M16.0286 16.8815C12.7779 13.6307 12.7779 8.36011 16.0286 5.10931C19.2794 1.8585 24.55 1.8585 27.8008 5.10931C31.0515 8.36011 36.2836 18.8628 33.0328 22.1136C29.782 25.3644 19.2794 20.1323 16.0286 16.8815Z" fill="#5EC6FA"/>
<path d="M18.8928 7.11824C22.1435 10.369 22.1435 15.6396 18.8928 18.8904C15.642 22.1412 10.3714 22.1412 7.12064 18.8904C3.86986 15.6396 -1.3622 5.13695 1.88859 1.88615C5.13937 -1.36465 15.642 3.86743 18.8928 7.11824Z" fill="#3E85F6"/>
<defs>
<linearGradient id="paint0_linear_44_3718" x1="186.075" y1="39.0223" x2="117.735" y2="-57.6216" gradientUnits="userSpaceOnUse">
<stop stop-color="#3E85F6"/>
<stop offset="1" stop-color="#5EBFFA"/>
</linearGradient>
<linearGradient id="paint1_linear_44_3718" x1="186.075" y1="39.0223" x2="117.735" y2="-57.6216" gradientUnits="userSpaceOnUse">
<stop stop-color="#3E85F6"/>
<stop offset="1" stop-color="#5EBFFA"/>
</linearGradient>
<linearGradient id="paint2_linear_44_3718" x1="186.075" y1="39.0223" x2="117.735" y2="-57.6216" gradientUnits="userSpaceOnUse">
<stop stop-color="#3E85F6"/>
<stop offset="1" stop-color="#5EBFFA"/>
</linearGradient>
<linearGradient id="paint3_linear_44_3718" x1="186.075" y1="39.0223" x2="117.735" y2="-57.6216" gradientUnits="userSpaceOnUse">
<stop stop-color="#3E85F6"/>
<stop offset="1" stop-color="#5EBFFA"/>
</linearGradient>
<linearGradient id="paint4_linear_44_3718" x1="186.075" y1="39.0223" x2="117.735" y2="-57.6216" gradientUnits="userSpaceOnUse">
<stop stop-color="#3E85F6"/>
<stop offset="1" stop-color="#5EBFFA"/>
</linearGradient>
<linearGradient id="paint5_linear_44_3718" x1="186.075" y1="39.0223" x2="117.735" y2="-57.6216" gradientUnits="userSpaceOnUse">
<stop stop-color="#3E85F6"/>
<stop offset="1" stop-color="#5EBFFA"/>
</linearGradient>
<linearGradient id="paint6_linear_44_3718" x1="186.075" y1="39.0223" x2="117.735" y2="-57.6216" gradientUnits="userSpaceOnUse">
<stop stop-color="#3E85F6"/>
<stop offset="1" stop-color="#5EBFFA"/>
</linearGradient>
<linearGradient id="paint7_linear_44_3718" x1="186.075" y1="39.0223" x2="117.735" y2="-57.6216" gradientUnits="userSpaceOnUse">
<stop stop-color="#3E85F6"/>
<stop offset="1" stop-color="#5EBFFA"/>
</linearGradient>
<linearGradient id="paint8_linear_44_3718" x1="186.075" y1="39.0223" x2="117.735" y2="-57.6216" gradientUnits="userSpaceOnUse">
<stop stop-color="#3E85F6"/>
<stop offset="1" stop-color="#5EBFFA"/>
</linearGradient>
</defs>
</svg>
