<svg width="252" height="32" viewBox="0 0 252 32" fill="none" xmlns="http://www.w3.org/2000/svg">
    <path d="M74.0046 27.9509C72.115 27.9509 70.4424 27.5934 68.9868 26.8784C67.5568 26.1378 66.4333 25.0525 65.6161 23.6225C64.799 22.167 64.3904 20.3667 64.3904 18.2217V11.6718C64.3904 8.45427 65.3225 6.02836 67.1866 4.39407C69.0507 2.75978 71.617 1.94263 74.8856 1.94263C77.2605 1.94263 79.2395 2.3129 80.8227 3.05344C82.4315 3.79398 83.5933 4.80264 84.3083 6.07944C85.0489 7.35623 85.317 8.81177 85.1127 10.4461C85.0616 10.7525 84.8829 10.9057 84.5765 10.9057H80.0949C79.7885 10.9057 79.648 10.727 79.6736 10.3695C79.6991 9.60338 79.5459 8.95221 79.2139 8.41596C78.9075 7.85417 78.3968 7.42006 77.6818 7.11364C76.9923 6.80721 76.0986 6.65399 75.0005 6.65399C73.3152 6.65399 72.0384 7.07533 71.1702 7.91801C70.3019 8.7607 69.8678 10.0886 69.8678 11.9016V17.9919C69.8678 19.8049 70.3019 21.1328 71.1702 21.9755C72.0384 22.8182 73.3279 23.2395 75.0388 23.2395C76.6476 23.2395 77.8605 22.882 78.6777 22.167C79.5204 21.452 79.9417 20.4306 79.9417 19.1027V18.0302H75.2687C74.9367 18.0302 74.7707 17.8642 74.7707 17.5322V14.6595C74.7707 14.3275 74.9367 14.1615 75.2687 14.1615H84.6914C84.8446 14.1615 84.9595 14.2126 85.0361 14.3147C85.1127 14.3913 85.151 14.5063 85.151 14.6595V21.4009C85.151 22.2947 85.1638 23.2395 85.1893 24.2354C85.2404 25.2313 85.3425 26.1378 85.4958 26.955C85.5468 27.1082 85.5213 27.2359 85.4192 27.338C85.317 27.4401 85.1893 27.4912 85.0361 27.4912H81.4356C81.3079 27.4912 81.2057 27.4529 81.1291 27.3763C81.0525 27.2997 80.9887 27.1976 80.9376 27.0699C80.8865 26.7634 80.8355 26.3932 80.7844 25.9591C80.7589 25.4994 80.7333 25.0781 80.7078 24.695H80.6312C80.2226 25.3334 79.7119 25.908 79.099 26.4187C78.5117 26.9039 77.7967 27.2742 76.954 27.5295C76.1113 27.8104 75.1282 27.9509 74.0046 27.9509Z" fill="white" fill-opacity="0.95"/>
    <path d="M99.0194 27.9509C96.236 27.9509 94.0654 27.2869 92.5077 25.9591C90.9756 24.6312 90.2095 22.6394 90.2095 19.9837V16.0384C90.2095 13.3827 90.9756 11.3909 92.5077 10.063C94.0654 8.73516 96.236 8.07123 99.0194 8.07123C101.828 8.07123 103.999 8.73516 105.531 10.063C107.063 11.3909 107.829 13.3827 107.829 16.0384V19.9837C107.829 22.6394 107.063 24.6312 105.531 25.9591C103.999 27.2869 101.828 27.9509 99.0194 27.9509ZM99.0194 23.431C100.245 23.431 101.126 23.1246 101.662 22.5117C102.224 21.8733 102.505 20.8647 102.505 19.4857V16.5364C102.505 15.1574 102.224 14.1615 101.662 13.5487C101.126 12.9103 100.245 12.5911 99.0194 12.5911C97.8192 12.5911 96.9382 12.9103 96.3764 13.5487C95.8146 14.1615 95.5337 15.1574 95.5337 16.5364V19.4857C95.5337 20.8647 95.8146 21.8733 96.3764 22.5117C96.9382 23.1246 97.8192 23.431 99.0194 23.431Z" fill="white" fill-opacity="0.95"/>
    <path d="M117.552 27.9509C115.764 27.9509 114.398 27.4146 113.453 26.3421C112.534 25.2696 112.074 23.6098 112.074 21.3626V15.8469C112.074 13.1656 112.674 11.1994 113.875 9.94811C115.075 8.69686 116.735 8.07123 118.854 8.07123C119.722 8.07123 120.68 8.18614 121.727 8.41596C122.774 8.64578 123.131 8.65855 123.795 9.06713V11.2887V13.3571C123.131 12.9996 123.093 12.8847 122.378 12.706C121.663 12.5272 121.025 12.4379 120.463 12.4379C119.416 12.4379 118.637 12.7698 118.126 13.4338C117.641 14.0977 117.399 15.0553 117.399 16.3065V20.4433C117.399 21.4137 117.577 22.1415 117.935 22.6266C118.318 23.1118 118.918 23.3544 119.735 23.3544C120.271 23.3544 120.795 23.2523 121.306 23.048C121.816 22.8182 122.34 22.499 122.876 22.0904C123.412 21.6818 123.987 21.1711 124.6 20.5582L123.795 21.3238L123.795 21.9372L124.868 24.0822C124.204 24.7972 123.502 25.4484 122.761 26.0357C122.046 26.623 121.254 27.0954 120.386 27.4529C119.544 27.7849 118.599 27.9509 117.552 27.9509ZM125.136 27.4912C124.983 27.4912 124.868 27.4657 124.791 27.4146C124.715 27.338 124.651 27.2103 124.6 27.0316C124.523 26.6485 124.446 26.1889 124.37 25.6526C124.293 25.0909 124.255 24.5801 124.255 24.1205L124.273 24.6953L124.868 24.0822L123.795 21.9372V1.82772C123.795 1.49576 123.961 1.32977 124.293 1.32977H128.66C128.966 1.32977 129.12 1.49576 129.12 1.82772V22.7799C129.12 23.2395 129.132 23.7247 129.158 24.2354C129.183 24.7206 129.209 25.193 129.234 25.6526C129.286 26.1123 129.324 26.5336 129.349 26.9167C129.426 27.2997 129.273 27.4912 128.89 27.4912H125.136Z" fill="white" fill-opacity="0.95"/>
    <path d="M134.706 27.4912C134.374 27.4912 134.208 27.3252 134.208 26.9933V13.3954C134.208 12.6294 134.183 11.8888 134.132 11.1738C134.106 10.4333 134.055 9.73106 133.978 9.06713C133.927 8.70962 134.093 8.53087 134.476 8.53087H138.268C138.422 8.53087 138.537 8.55641 138.613 8.60748C138.69 8.65855 138.741 8.7607 138.766 8.91391C138.843 9.24588 138.907 9.62891 138.958 10.063C139.035 10.4716 139.086 10.8802 139.111 11.2887C140.005 10.395 140.95 9.64168 141.946 9.02882C142.941 8.39043 144.103 8.07123 145.431 8.07123C146.785 8.07123 147.832 8.33935 148.572 8.87561C149.313 9.41186 149.849 10.2162 150.181 11.2887C151.1 10.3695 152.071 9.60338 153.092 8.99052C154.139 8.37766 155.314 8.07123 156.616 8.07123C158.403 8.07123 159.731 8.58195 160.6 9.60338C161.493 10.6248 161.94 12.208 161.94 14.353V26.9933C161.94 27.3252 161.774 27.4912 161.442 27.4912H157.114C156.782 27.4912 156.616 27.3252 156.616 26.9933V15.4255C156.616 14.5063 156.45 13.8168 156.118 13.3571C155.786 12.8975 155.25 12.6677 154.509 12.6677C153.871 12.6677 153.245 12.8464 152.632 13.2039C152.045 13.5359 151.419 14.0338 150.755 14.6978V26.9933C150.755 27.3252 150.589 27.4912 150.257 27.4912H145.929C145.597 27.4912 145.431 27.3252 145.431 26.9933V15.4255C145.431 14.5063 145.265 13.8168 144.933 13.3571C144.601 12.8975 144.052 12.6677 143.286 12.6677C142.648 12.6677 142.035 12.8464 141.448 13.2039C140.86 13.5359 140.222 14.0338 139.532 14.6978V26.9933C139.532 27.3252 139.366 27.4912 139.035 27.4912H134.706Z" fill="white" fill-opacity="0.95"/>
    <path d="M178.255 27.4912C178.102 27.4912 177.987 27.4529 177.91 27.3763C177.834 27.2742 177.77 27.1465 177.719 26.9933C177.668 26.7124 177.604 26.291 177.527 25.7292C177.451 25.1419 177.387 24.5674 177.336 24.0056L177.394 24.6166L176.953 22.3968V14.6978C176.953 13.7274 176.761 13.0507 176.378 12.6677C176.021 12.2591 175.37 12.0548 174.425 12.0548C172.688 12.0548 171.858 12.706 171.935 14.0083C171.961 14.3403 171.795 14.5063 171.437 14.5063H167.415C167.109 14.5063 166.93 14.302 166.879 13.8934C166.726 12.0293 167.313 10.5993 168.641 9.60338C169.994 8.58195 171.986 8.07123 174.616 8.07123C177.298 8.07123 179.238 8.62025 180.438 9.71829C181.664 10.7908 182.277 12.5017 182.277 14.851V22.6266C182.277 23.4438 182.29 24.2099 182.315 24.9249C182.366 25.6143 182.43 26.291 182.507 26.955C182.558 27.3125 182.392 27.4912 182.009 27.4912H178.255ZM170.901 27.9509C169.369 27.9509 168.181 27.4912 167.339 26.5719C166.496 25.6271 166.075 24.2992 166.075 22.5883C166.075 21.2605 166.317 20.188 166.802 19.3708C167.313 18.5281 168.143 17.877 169.292 17.4173C170.467 16.9322 172.024 16.613 173.965 16.4597L177.527 16.115L176.953 16.1706V19.0768L177.489 19.0261L174.655 19.2942C173.352 19.4219 172.446 19.69 171.935 20.0986C171.45 20.4816 171.207 21.1073 171.207 21.9755C171.207 22.6649 171.348 23.1629 171.629 23.4693C171.909 23.7758 172.331 23.929 172.893 23.929C173.608 23.929 174.323 23.7119 175.038 23.2778C175.753 22.8437 176.621 22.0776 177.642 20.9796L176.953 21.6935L176.953 22.3968L177.398 24.6384L177.872 24.1588C177.157 24.8993 176.442 25.5633 175.727 26.1506C175.038 26.7124 174.297 27.1593 173.505 27.4912C172.739 27.7976 171.871 27.9509 170.901 27.9509Z" fill="white" fill-opacity="0.95"/>
    <path d="M199.657 27.4912C199.325 27.4912 199.159 27.3252 199.159 26.9933V15.4255C199.159 14.4807 198.968 13.7913 198.585 13.3571C198.227 12.8975 197.64 12.6677 196.823 12.6677C196.005 12.6677 195.201 12.9103 194.409 13.3954C193.643 13.8806 192.826 14.5701 191.958 15.4638L192.647 14.787L192.647 14.0466L192.313 12.1897L192.256 11.2792L191.652 11.9016C192.315 11.1866 193.005 10.5482 193.72 9.98641C194.46 9.39909 195.252 8.93945 196.095 8.60748C196.963 8.24998 197.921 8.07123 198.968 8.07123C200.781 8.07123 202.147 8.58195 203.066 9.60338C204.011 10.6248 204.483 12.208 204.483 14.353V26.9933C204.483 27.3252 204.317 27.4912 203.985 27.4912H199.657ZM187.821 27.4912C187.489 27.4912 187.323 27.3252 187.323 26.9933V13.3954C187.323 12.6294 187.298 11.8633 187.247 11.0972C187.196 10.3311 187.144 9.66722 187.093 9.10543C187.042 8.72239 187.208 8.53087 187.591 8.53087H191.383C191.537 8.53087 191.652 8.56918 191.728 8.64579C191.83 8.69686 191.894 8.799 191.92 8.95221C191.971 9.18204 192.022 9.48847 192.073 9.8715C192.124 10.229 192.175 10.612 192.226 11.0206C192.277 11.4292 192.303 11.7995 192.303 12.1314L192.647 14.0466V26.9933C192.647 27.3252 192.481 27.4912 192.15 27.4912H187.821Z" fill="white" fill-opacity="0.95"/>
    <path d="M212.817 27.9509C211.719 27.9509 210.864 27.67 210.251 27.1082C209.663 26.5464 209.37 25.8059 209.37 24.8866V24.0439C209.37 23.0735 209.663 22.3202 210.251 21.784C210.864 21.2477 211.719 20.9796 212.817 20.9796C213.966 20.9796 214.822 21.2477 215.383 21.784C215.971 22.3202 216.264 23.0735 216.264 24.0439V24.8866C216.264 25.8059 215.971 26.5464 215.383 27.1082C214.822 27.67 213.966 27.9509 212.817 27.9509Z" fill="white" fill-opacity="0.95"/>
    <path d="M219.934 27.4912C219.577 27.4912 219.449 27.3125 219.551 26.955L227.671 2.78531C227.774 2.52996 227.965 2.40228 228.246 2.40228H234.106C234.387 2.40228 234.566 2.52996 234.643 2.78531L242.84 26.955C242.891 27.1082 242.878 27.2359 242.801 27.338C242.75 27.4401 242.635 27.4912 242.457 27.4912H237.515C237.235 27.4912 237.056 27.3635 236.979 27.1082L232.574 12.2846C232.319 11.4164 232.076 10.5482 231.847 9.67999C231.617 8.78623 231.387 7.90525 231.157 7.03703H231.08C230.851 7.90525 230.621 8.78623 230.391 9.67999C230.161 10.5482 229.919 11.4164 229.663 12.2846L225.335 27.0699C225.258 27.3508 225.08 27.4912 224.799 27.4912H219.934ZM225.833 22.6266H226.636L227.914 18.26H226.752H235.37H234.35L235.648 22.6266H236.366H225.833Z" fill="white" fill-opacity="0.95"/>
    <path d="M246.537 27.4912C246.205 27.4912 246.039 27.3252 246.039 26.9933V2.90023C246.039 2.56826 246.205 2.40228 246.537 2.40228H251.018C251.35 2.40228 251.516 2.56826 251.516 2.90023V26.9933C251.516 27.3252 251.35 27.4912 251.018 27.4912H246.537Z" fill="white" fill-opacity="0.95"/>
    <path d="M21.7834 23.0119C17.114 18.3425 17.114 10.7719 21.7834 6.10245C26.4527 1.43303 34.0233 1.43303 38.6927 6.10245C43.3621 10.7719 50.8774 25.8578 46.208 30.5272C41.5386 35.1966 26.4527 27.6813 21.7834 23.0119Z" fill="#5EC6FA"/>
    <path d="M25.8974 8.98806C30.5667 13.6575 30.5667 21.2281 25.8974 25.8975C21.228 30.5669 13.6574 30.5669 8.988 25.8975C4.31861 21.2281 -3.19665 6.14216 1.47274 1.47275C6.14213 -3.19667 21.228 4.31864 25.8974 8.98806Z" fill="#3E85F6"/>
</svg>
